<?xml version="1.0" encoding="UTF-8"?>
<svg version="1.1" xmlns="http://www.w3.org/2000/svg" width="2226" height="2217">
<path d="M0 0 C49.79809391 -0.04950539 99.59618974 -0.0969303 149.39428711 -0.14282227 C150.36872331 -0.14372044 151.34315952 -0.14461862 152.34712409 -0.14554402 C256.74154292 -0.24171343 361.13596237 -0.32472565 465.53041077 -0.38108826 C467.84881475 -0.38234331 470.16721873 -0.38359838 472.48562271 -0.38485345 C521.14759035 -0.41115659 569.80955877 -0.43560714 618.4715284 -0.4579171 C642.91538776 -0.46912581 667.35924695 -0.48069058 691.80310598 -0.49259197 C695.49041162 -0.49438521 699.17771726 -0.49616828 702.86502291 -0.49795092 C759.65652887 -0.52549666 816.44801749 -0.56068705 873.23950195 -0.61798096 C874.46093214 -0.61921305 875.68236232 -0.62044514 876.94080554 -0.62171456 C896.63436619 -0.64162635 916.32792618 -0.66217866 936.02148608 -0.68281596 C992.73249982 -0.74223488 1049.44350023 -0.79693171 1106.15454197 -0.82025814 C1107.90320312 -0.82098086 1107.90320312 -0.82098086 1109.68719077 -0.82171819 C1135.27637537 -0.83220912 1160.86556014 -0.84026324 1186.45474623 -0.84600885 C1196.75036945 -0.8483635 1207.04599258 -0.85106908 1217.34161568 -0.85389519 C1218.46843936 -0.85419603 1219.59526305 -0.85449688 1220.75623291 -0.85480684 C1257.08592649 -0.86468097 1293.41552107 -0.90314133 1329.74517469 -0.95653988 C1366.3299061 -1.01018284 1402.91454138 -1.03590424 1439.49931314 -1.02261589 C1444.55090183 -1.02078808 1449.60249058 -1.01928167 1454.65407944 -1.01796913 C1456.13950829 -1.01756574 1456.13950829 -1.01756574 1457.65494581 -1.01715421 C1473.35791396 -1.01372362 1489.06067916 -1.0406297 1504.76359197 -1.08008876 C1520.19132812 -1.11823638 1535.61880032 -1.12450263 1551.0465613 -1.09648632 C1560.10014511 -1.08101653 1569.15289363 -1.09037929 1578.20638057 -1.13595302 C1584.21315391 -1.16374716 1590.21932756 -1.15911527 1596.22608195 -1.12770965 C1599.63552611 -1.11080481 1603.04334137 -1.10802354 1606.4526622 -1.1451172 C1610.11561216 -1.17744994 1613.77420634 -1.15465667 1617.43701786 -1.11778647 C1618.48836156 -1.14036636 1619.53970526 -1.16294626 1620.62290785 -1.18621039 C1626.65988005 -1.05576101 1629.65158798 0.02461438 1633.99880943 4.31668783 C1635.36033497 5.85361017 1636.69582036 7.41412561 1638 9 C1639.19203452 10.35200509 1640.38569443 11.70258161 1641.58203125 13.05078125 C1642.14229004 13.70256348 1642.70254883 14.3543457 1643.27978516 15.02587891 C1646.3138538 18.50778056 1649.50908711 21.83782803 1652.6875 25.1875 C1657.52742457 30.30851722 1662.35471945 35.43899457 1667.125 40.625 C1671.39689312 45.2686778 1675.69102732 49.89070142 1680 54.5 C1684.83965385 59.67770334 1689.65905871 64.87320277 1694.4609375 70.0859375 C1698.88319228 74.88256306 1703.33610338 79.65020791 1707.79125977 84.41625977 C1711.52183591 88.40953086 1715.23627106 92.4170276 1718.9375 96.4375 C1723.43099894 101.31753649 1727.95854079 106.16458034 1732.5 111 C1737.52983821 116.35541055 1742.53559591 121.73138854 1747.51171875 127.13671875 C1751.32337885 131.2745102 1755.15824194 135.39015142 1759 139.5 C1763.83963091 144.67772492 1768.65905855 149.8732026 1773.4609375 155.0859375 C1777.29051457 159.23971157 1781.14208969 163.37254137 1785 167.5 C1789.34876101 172.15260457 1793.68506953 176.81600097 1798 181.5 C1804.63265346 188.69845129 1811.31587444 195.84937058 1818 203 C1825.17517927 210.67595514 1832.34231913 218.35840122 1839.46142578 226.08642578 C1843.29079354 230.24008006 1847.14224683 234.37270949 1851 238.5 C1855.83960796 243.67774651 1860.65905839 248.87320243 1865.4609375 254.0859375 C1869.29051457 258.23971157 1873.14208969 262.37254137 1877 266.5 C1881.34876101 271.15260457 1885.68506953 275.81600097 1890 280.5 C1896.63265346 287.69845129 1903.31587444 294.84937058 1910 302 C1917.17517927 309.67595514 1924.34231913 317.35840122 1931.46142578 325.08642578 C1935.29079354 329.24008006 1939.14224683 333.37270949 1943 337.5 C1947.83960796 342.67774651 1952.65905839 347.87320243 1957.4609375 353.0859375 C1961.29051457 357.23971157 1965.14208969 361.37254137 1969 365.5 C1973.34876101 370.15260457 1977.68506953 374.81600097 1982 379.5 C1988.63265346 386.69845129 1995.31587444 393.84937058 2002 401 C2009.17517927 408.67595514 2016.34231913 416.35840122 2023.46142578 424.08642578 C2027.29079354 428.24008006 2031.14224683 432.37270949 2035 436.5 C2039.83960796 441.67774651 2044.65905839 446.87320243 2049.4609375 452.0859375 C2053.29051457 456.23971157 2057.14208969 460.37254137 2061 464.5 C2065.34876101 469.15260457 2069.68506953 473.81600097 2074 478.5 C2080.63265346 485.69845129 2087.31587444 492.84937058 2094 500 C2101.17517927 507.67595514 2108.34231913 515.35840122 2115.46142578 523.08642578 C2119.29079354 527.24008006 2123.14224683 531.37270949 2127 535.5 C2131.83960796 540.67774651 2136.65905839 545.87320243 2141.4609375 551.0859375 C2145.29051457 555.23971157 2149.14208969 559.37254137 2153 563.5 C2157.83960796 568.67774651 2162.65905839 573.87320243 2167.4609375 579.0859375 C2171.88319228 583.88256306 2176.33610338 588.65020791 2180.79125977 593.41625977 C2184.52183591 597.40953086 2188.23627106 601.4170276 2191.9375 605.4375 C2197.05845666 610.99896906 2202.22651797 616.51523073 2207.40258789 622.02539062 C2212.56810208 627.52849828 2217.69392464 633.06715984 2222.8046875 638.62109375 C2224.37992304 640.33208575 2224.37992304 640.33208575 2226 642 C2226.09718914 643.41994911 2226.12478413 644.84472213 2226.12467116 646.26799342 C2226.12820051 647.66207069 2226.12820051 647.66207069 2226.13180115 649.08431114 C2226.12929228 650.12012618 2226.1267834 651.15594122 2226.1241985 652.22314459 C2226.12547658 653.31814571 2226.12675467 654.41314683 2226.12807148 655.5413298 C2226.13117192 659.26770287 2226.12704839 662.99403478 2226.12304783 666.72040653 C2226.12378647 669.40762224 2226.12492221 672.09483511 2226.12654433 674.78205016 C2226.12928975 680.67261429 2226.12827571 686.56316878 2226.12488318 692.45373244 C2226.11982425 701.27212727 2226.12050647 710.09051516 2226.12234976 718.90891091 C2226.12532227 733.93443518 2226.12353489 748.95995557 2226.11920547 763.98547935 C2226.11483451 779.22211374 2226.11263206 794.45874613 2226.11310768 809.69538116 C2226.11315072 811.13640944 2226.11315072 811.13640944 2226.11319463 812.60654939 C2226.11335099 817.50468335 2226.11354294 822.40281731 2226.11374746 827.30095127 C2226.11515671 862.79707114 2226.11171807 898.29318923 2226.10573006 933.78930855 C2226.09981221 968.95338512 2226.09595589 1004.11746094 2226.09487724 1039.28153801 C2226.09484283 1040.37267445 2226.09480842 1041.46381089 2226.09477296 1042.58801208 C2226.09445978 1052.55352701 2226.09417208 1062.51904194 2226.09391499 1072.48455687 C2226.09327551 1097.26025024 2226.09231613 1122.03594358 2226.09113979 1146.81163692 C2226.09108648 1147.94000007 2226.09103316 1149.06836321 2226.09097823 1150.23091917 C2226.08835526 1205.14995877 2226.0820471 1260.06899787 2226.07543945 1314.98803711 C2226.07314784 1334.05163574 2226.0708725 1353.11523437 2226.06866455 1372.17883301 C2226.0685276 1373.3611224 2226.06839065 1374.54341178 2226.06824955 1375.76152812 C2226.06190816 1430.69962056 2226.05818075 1485.63771308 2226.05512976 1540.57580578 C2226.05493169 1544.14142279 2226.0547325 1547.7070398 2226.05453308 1551.27265682 C2226.05321332 1574.90173208 2226.05193867 1598.53080734 2226.05069422 1622.1598826 C2226.04821757 1669.17786388 2226.04547588 1716.19584515 2226.04255217 1763.21382642 C2226.04241293 1765.45306129 2226.04227388 1767.69229617 2226.04213501 1769.93153105 C2226.03588009 1870.76628462 2226.02654158 1971.60103782 2226.01586914 2072.43579102 C2226.01576921 2073.38018095 2226.01566927 2074.32457089 2226.01556631 2075.29757871 C2226.01056561 2122.53171916 2226.00539153 2169.76585959 2226 2217 C2177.68652619 2217.06050744 2129.37304944 2217.11847109 2081.05957031 2217.17456055 C2080.11417264 2217.17565832 2079.16877496 2217.1767561 2078.19472887 2217.17788714 C1976.90487951 2217.29543495 1875.61502918 2217.39689236 1774.32513428 2217.46577454 C1772.07549956 2217.46730849 1769.82586484 2217.46884246 1767.57623013 2217.47037644 C1720.35696897 2217.5025252 1673.13770659 2217.53240916 1625.91844236 2217.55967646 C1602.19903729 2217.57337592 1578.4796325 2217.58751063 1554.76022793 2217.60205686 C1551.18222026 2217.60424859 1547.60421258 2217.60642789 1544.0262049 2217.60860668 C1488.9226217 2217.64227094 1433.81906522 2217.68527621 1378.71551514 2217.75531006 C1377.53052253 2217.75681595 1376.34552992 2217.75832183 1375.12462845 2217.75987335 C1356.01874579 2217.78420978 1336.91286416 2217.80932935 1317.80698265 2217.83455284 C1262.78363577 2217.90718248 1207.76030942 2217.97403186 1152.7369194 2218.00253773 C1151.60567072 2218.00312661 1150.47442204 2218.0037155 1149.30889309 2218.00432223 C1124.47665547 2218.01714492 1099.64441759 2218.02698865 1074.81217768 2218.03401081 C1064.82087825 2218.0368887 1054.82957897 2218.04019551 1044.83827972 2218.04364967 C1043.19801228 2218.04420122 1043.19801228 2218.04420122 1041.52460811 2218.04476391 C1006.27767922 2218.05682932 971.03090285 2218.10382631 935.78403554 2218.16910429 C900.28528744 2218.23468913 864.78668741 2218.26609933 829.28787718 2218.24986387 C824.38457633 2218.24762992 819.48127541 2218.24578874 814.57797432 2218.24418449 C813.61677055 2218.24385581 812.65556678 2218.24352712 811.66523562 2218.24318848 C796.43253173 2218.23899796 781.20014072 2218.27185946 765.96752214 2218.32010849 C750.99631628 2218.36677045 736.02551675 2218.37436448 721.05427257 2218.34014995 C712.27205648 2218.32126438 703.49112749 2218.33261033 694.70906112 2218.38838702 C688.87816946 2218.422423 683.04819932 2218.41662882 677.21733631 2218.3783118 C673.9095562 2218.35769603 670.60631843 2218.36020838 667.2984072 2218.39958769 C645.72934662 2218.64014439 645.72934662 2218.64014439 639.23861992 2213.2389912 C636.95450651 2210.98422445 634.98968046 2208.51493338 633 2206 C631.05775649 2204.09225181 629.03927499 2202.30697673 627 2200.5 C625.99826436 2199.58523036 624.99805366 2198.66878543 624 2197.75 C623.505 2197.29625 623.01 2196.8425 622.5 2196.375 C606.00000001 2181.25000001 606.00000001 2181.25000001 604.49951172 2179.87451172 C603.50119339 2178.95941367 602.50282114 2178.04437445 601.50439453 2177.12939453 C598.9782158 2174.81421148 596.45303168 2172.4979599 593.9296875 2170.1796875 C589.32650235 2165.95233249 584.71586224 2161.73473917 580.0625 2157.5625 C575.09487617 2153.10356085 570.19316748 2148.57561669 565.29296875 2144.04296875 C562.18217159 2141.16605238 559.06201655 2138.29950383 555.9375 2135.4375 C555.44652832 2134.98777832 554.95555664 2134.53805664 554.44970703 2134.07470703 C553.46115485 2133.16937398 552.47254823 2132.26410037 551.48388672 2131.35888672 C548.98835593 2129.07357504 546.49425473 2126.7867042 544 2124.5 C543.00000675 2123.58332596 542.00000676 2122.6666593 541 2121.75 C535 2116.25 535 2116.25 533.49951172 2114.87451172 C532.50119339 2113.95941367 531.50282114 2113.04437445 530.50439453 2112.12939453 C527.9782158 2109.81421148 525.45303168 2107.4979599 522.9296875 2105.1796875 C518.32650235 2100.95233249 513.71586224 2096.73473917 509.0625 2092.5625 C504.09487617 2088.10356085 499.19316748 2083.57561669 494.29296875 2079.04296875 C491.18217159 2076.16605238 488.06201655 2073.29950383 484.9375 2070.4375 C484.44652832 2069.98777832 483.95555664 2069.53805664 483.44970703 2069.07470703 C482.46115485 2068.16937398 481.47254823 2067.26410037 480.48388672 2066.35888672 C478.48917482 2064.53220583 476.49540093 2062.70450295 474.50170898 2060.87670898 C473.50260376 2059.96076778 472.50341789 2059.04491455 471.50415039 2058.12915039 C468.97803926 2055.81406372 466.45294702 2053.49788212 463.9296875 2051.1796875 C459.32650235 2046.95233249 454.71586224 2042.73473917 450.0625 2038.5625 C445.09487617 2034.10356085 440.19316748 2029.57561669 435.29296875 2025.04296875 C432.18217159 2022.16605238 429.06201655 2019.29950383 425.9375 2016.4375 C425.44652832 2015.98777832 424.95555664 2015.53805664 424.44970703 2015.07470703 C423.46115485 2014.16937398 422.47254823 2013.26410037 421.48388672 2012.35888672 C419.48917482 2010.53220583 417.49540093 2008.70450295 415.50170898 2006.87670898 C414.50260376 2005.96076778 413.50341789 2005.04491455 412.50415039 2004.12915039 C409.97803926 2001.81406372 407.45294702 1999.49788212 404.9296875 1997.1796875 C400.32650235 1992.95233249 395.71586224 1988.73473917 391.0625 1984.5625 C386.09487617 1980.10356085 381.19316748 1975.57561669 376.29296875 1971.04296875 C373.18217159 1968.16605238 370.06201655 1965.29950383 366.9375 1962.4375 C366.44652832 1961.98777832 365.95555664 1961.53805664 365.44970703 1961.07470703 C364.46115485 1960.16937398 363.47254823 1959.26410037 362.48388672 1958.35888672 C359.98835593 1956.07357504 357.49425473 1953.7867042 355 1951.5 C354.00000675 1950.58332596 353.00000676 1949.6666593 352 1948.75 C346.00000001 1943.25000001 346.00000001 1943.25000001 344.49951172 1941.87451172 C343.50119339 1940.95941367 342.50282114 1940.04437445 341.50439453 1939.12939453 C338.9782158 1936.81421148 336.45303168 1934.4979599 333.9296875 1932.1796875 C329.32650235 1927.95233249 324.71586224 1923.73473917 320.0625 1919.5625 C315.09487617 1915.10356085 310.19316748 1910.57561669 305.29296875 1906.04296875 C302.18217159 1903.16605238 299.06201655 1900.29950383 295.9375 1897.4375 C295.44652832 1896.98777832 294.95555664 1896.53805664 294.44970703 1896.07470703 C293.46115485 1895.16937398 292.47254823 1894.26410037 291.48388672 1893.35888672 C289.48917482 1891.53220583 287.49540093 1889.70450295 285.50170898 1887.87670898 C284.50260376 1886.96076778 283.50341789 1886.04491455 282.50415039 1885.12915039 C279.97803926 1882.81406372 277.45294702 1880.49788212 274.9296875 1878.1796875 C270.32650235 1873.95233249 265.71586224 1869.73473917 261.0625 1865.5625 C256.09487617 1861.10356085 251.19316748 1856.57561669 246.29296875 1852.04296875 C243.18217159 1849.16605238 240.06201655 1846.29950383 236.9375 1843.4375 C236.44652832 1842.98777832 235.95555664 1842.53805664 235.44970703 1842.07470703 C234.46115485 1841.16937398 233.47254823 1840.26410037 232.48388672 1839.35888672 C229.98835593 1837.07357504 227.49425473 1834.7867042 225 1832.5 C224.00000675 1831.58332596 223.00000676 1830.6666593 222 1829.75 C216.00000001 1824.25000001 216.00000001 1824.25000001 214.49951172 1822.87451172 C213.50119339 1821.95941367 212.50282114 1821.04437445 211.50439453 1820.12939453 C208.9782158 1817.81421148 206.45303168 1815.4979599 203.9296875 1813.1796875 C199.32650235 1808.95233249 194.71586224 1804.73473917 190.0625 1800.5625 C185.09487617 1796.10356085 180.19316748 1791.57561669 175.29296875 1787.04296875 C172.18217159 1784.16605238 169.06201655 1781.29950383 165.9375 1778.4375 C165.44652832 1777.98777832 164.95555664 1777.53805664 164.44970703 1777.07470703 C163.46115485 1776.16937398 162.47254823 1775.26410037 161.48388672 1774.35888672 C159.48917482 1772.53220583 157.49540093 1770.70450295 155.50170898 1768.87670898 C154.50260376 1767.96076778 153.50341789 1767.04491455 152.50415039 1766.12915039 C149.97803926 1763.81406372 147.45294702 1761.49788212 144.9296875 1759.1796875 C140.32650235 1754.95233249 135.71586224 1750.73473917 131.0625 1746.5625 C126.09487617 1742.10356085 121.19316748 1737.57561669 116.29296875 1733.04296875 C113.18217159 1730.16605238 110.06201655 1727.29950383 106.9375 1724.4375 C106.44652832 1723.98777832 105.95555664 1723.53805664 105.44970703 1723.07470703 C104.46115485 1722.16937398 103.47254823 1721.26410037 102.48388672 1720.35888672 C100.48917482 1718.53220583 98.49540093 1716.70450295 96.50170898 1714.87670898 C95.50260376 1713.96076778 94.50341789 1713.04491455 93.50415039 1712.12915039 C90.97803926 1709.81406372 88.45294702 1707.49788212 85.9296875 1705.1796875 C81.32650235 1700.95233249 76.71586224 1696.73473917 72.0625 1692.5625 C67.09487617 1688.10356085 62.19316748 1683.57561669 57.29296875 1679.04296875 C54.18217159 1676.16605238 51.06201655 1673.29950383 47.9375 1670.4375 C47.44652832 1669.98777832 46.95555664 1669.53805664 46.44970703 1669.07470703 C45.46115485 1668.16937398 44.47254823 1667.26410037 43.48388672 1666.35888672 C40.98835593 1664.07357504 38.49425473 1661.7867042 36 1659.5 C35.00000675 1658.58332596 34.00000676 1657.6666593 33 1656.75 C27 1651.25 27 1651.25 25.49853516 1649.87329102 C24.50390473 1648.96178953 23.50879157 1648.05081449 22.51318359 1647.14038086 C19.92670952 1644.77389696 17.35063524 1642.39734188 14.7890625 1640.00390625 C14.25925781 1639.51148438 13.72945312 1639.0190625 13.18359375 1638.51171875 C11.7161843 1637.1472854 10.2524978 1635.77885125 8.7890625 1634.41015625 C6.12054289 1631.88442867 6.12054289 1631.88442867 2.87225803 1630.53283884 C-0.35223085 1627.68939282 -0.44694791 1627.27341444 -0.74802699 1623.218567 C-0.77795246 1621.16740353 -0.77423167 1619.11559856 -0.74519098 1617.06442237 C-0.7528595 1615.92878234 -0.76052801 1614.79314232 -0.76842891 1613.62308896 C-0.78371329 1610.45081986 -0.77190963 1607.27994457 -0.7490247 1604.10776244 C-0.73069845 1600.65160718 -0.74717671 1597.19559158 -0.75926596 1593.73943317 C-0.77571236 1587.65217521 -0.76968276 1581.56525357 -0.74929909 1575.47801229 C-0.71890356 1566.36530886 -0.72304834 1557.25284684 -0.73409855 1548.14011109 C-0.75191997 1532.6120259 -0.74122569 1517.08407576 -0.71523285 1501.55600739 C-0.68899548 1485.81266225 -0.6757937 1470.06938694 -0.67864609 1454.32601929 C-0.67881824 1453.33292083 -0.67899039 1452.33982237 -0.67916776 1451.31663003 C-0.68010597 1446.25312329 -0.68125767 1441.18961663 -0.68248478 1436.12610995 C-0.6909375 1399.44341866 -0.67031804 1362.76078957 -0.63438034 1326.07811737 C-0.59886657 1289.74146975 -0.57573402 1253.40484876 -0.56926346 1217.0681839 C-0.56905699 1215.94043193 -0.56885052 1214.81267996 -0.56863779 1213.65075368 C-0.56675864 1203.35073964 -0.56503249 1193.05072557 -0.56348994 1182.75071148 C-0.55965317 1157.14404001 -0.55389698 1131.53736917 -0.54683876 1105.93069839 C-0.54651886 1104.7645231 -0.54619895 1103.5983478 -0.54586935 1102.39683386 C-0.53013363 1045.64507972 -0.49228558 988.89334318 -0.45263672 932.14160156 C-0.43888697 912.44319675 -0.42523489 892.74479188 -0.4119873 873.04638672 C-0.41116561 871.82471859 -0.41034391 870.60305047 -0.40949732 869.3443621 C-0.37144506 812.5705359 -0.34908324 755.79670669 -0.33077853 699.02287109 C-0.32959015 695.33785822 -0.32839499 691.65284536 -0.32719846 687.96783249 C-0.31927989 663.54741596 -0.31163197 639.12699936 -0.3041653 614.7065827 C-0.28930562 566.11445927 -0.27285549 517.52233641 -0.25531302 468.93021388 C-0.25447758 466.61603945 -0.25364325 464.30186503 -0.25281004 461.9876906 C-0.21528321 357.78573035 -0.15925296 253.583783 -0.09521484 149.38183594 C-0.09461523 148.40596297 -0.09401562 147.43009001 -0.09339784 146.42464513 C-0.063394 97.61642936 -0.03234956 48.80821428 0 0 Z M592 596 C592 935.57 592 1275.14 592 1625 C932.89 1625 1273.78 1625 1625 1625 C1625.8287096 1575.20819932 1625.8287096 1575.20819932 1626.15821838 1525.41874695 C1626.16231202 1522.45058763 1626.16779092 1519.48243115 1626.17318195 1516.51427394 C1626.18391557 1510.22456813 1626.19147734 1503.93486586 1626.19658089 1497.64515305 C1626.20419357 1488.28173286 1626.21732021 1478.91832519 1626.23132664 1469.55491267 C1626.25485403 1453.72532451 1626.27418693 1437.895734 1626.29092598 1422.06613731 C1626.30760255 1406.30276889 1626.32616121 1390.53940444 1626.34705925 1374.77604103 C1626.34903566 1373.2834713 1626.34903566 1373.2834713 1626.351052 1371.76074865 C1626.35641324 1367.71630785 1626.36178754 1363.67186708 1626.36717889 1359.62742633 C1626.41619393 1322.85505604 1626.46084257 1286.08268183 1626.50268555 1249.31030273 C1626.54153351 1215.17260349 1626.58297133 1181.03490888 1626.62768555 1146.8972168 C1626.62904808 1145.85646233 1626.63041061 1144.81570786 1626.63181442 1143.74341538 C1626.63731167 1139.54459487 1626.64281113 1135.34577436 1626.64831098 1131.14695385 C1626.65105644 1129.05095057 1626.65380167 1126.95494729 1626.65654668 1124.85894401 C1626.65928827 1122.76568296 1626.66203069 1120.67242192 1626.66477392 1118.57916087 C1626.70961367 1084.34794341 1626.75211953 1050.116723 1626.79423871 1015.8855021 C1626.80633871 1006.0574543 1626.81853724 996.22940666 1626.83100247 986.40135932 C1626.83221352 985.4444002 1626.83342457 984.48744108 1626.83467232 983.50148321 C1626.84027687 979.0729949 1626.84590128 974.64450662 1626.85158097 970.21601842 C1627.00963124 845.47719236 1627 720.73908032 1627 596 C1285.45 596 943.9 596 592 596 Z " fill="#3859CF" transform="translate(0,0)"/>
<path d="M0 0 C537.24 0 1074.48 0 1628 0 C1628 196.68 1628 393.36 1628 596 C1286.12 596 944.24 596 592 596 C592 935.9 592 1275.8 592 1626 C297.125 1626.4375 297.125 1626.4375 203.84033203 1626.56811523 C176.36949051 1626.61134395 176.36949051 1626.61134395 148.89865112 1626.65589905 C135.80269534 1626.67710134 122.70673903 1626.69498953 109.61077639 1626.71129703 C96.27179831 1626.72798784 82.93282972 1626.74837484 69.59386276 1626.77237374 C61.65230248 1626.78655178 53.71074955 1626.79800071 45.76918001 1626.80541687 C39.92400407 1626.81117513 34.07884537 1626.82206669 28.23368073 1626.83504486 C25.85756557 1626.83949815 23.48144651 1626.84223281 21.10532737 1626.84315884 C17.89030455 1626.84465525 14.67535305 1626.85218452 11.46034431 1626.8613348 C10.51899394 1626.86031219 9.57764356 1626.85928958 8.60776741 1626.85823598 C7.75759727 1626.86191663 6.90742713 1626.86559729 6.03149426 1626.86938947 C4.92761938 1626.87102727 4.92761938 1626.87102727 3.801444 1626.87269815 C1.89746217 1626.89166381 1.89746217 1626.89166381 0 1628 C0 1090.76 0 553.52 0 0 Z " fill="#7BF6FE" transform="translate(0,0)"/>
</svg>
